<?xml version="1.0" encoding="UTF-8" standalone="no"?>
<!-- Created with Inkscape (http://www.inkscape.org/) -->

<svg
   xmlns:dc="http://purl.org/dc/elements/1.1/"
   xmlns:cc="http://creativecommons.org/ns#"
   xmlns:rdf="http://www.w3.org/1999/02/22-rdf-syntax-ns#"
   xmlns:svg="http://www.w3.org/2000/svg"
   xmlns="http://www.w3.org/2000/svg"
   xmlns:sodipodi="http://sodipodi.sourceforge.net/DTD/sodipodi-0.dtd"
   xmlns:inkscape="http://www.inkscape.org/namespaces/inkscape"
   width="210mm"
   height="80mm"
   viewBox="0 0 744.09449 1052.3622"
   id="svg2"
   version="1.1"
   inkscape:version="0.91 r13725"
   sodipodi:docname="logo.svg">
  <defs
     id="defs4" />
  <sodipodi:namedview
     id="base"
     pagecolor="#ffffff"
     bordercolor="#666666"
     borderopacity="1.0"
     inkscape:pageopacity="0.0"
     inkscape:pageshadow="2"
     inkscape:zoom="0.7"
     inkscape:cx="875.78734"
     inkscape:cy="295.75629"
     inkscape:document-units="px"
     inkscape:current-layer="layer1"
     showgrid="false"
     inkscape:window-width="1920"
     inkscape:window-height="1061"
     inkscape:window-x="0"
     inkscape:window-y="19"
     inkscape:window-maximized="0" />
  <metadata
     id="metadata7">
    <rdf:RDF>
      <cc:Work
         rdf:about="">
        <dc:format>image/svg+xml</dc:format>
        <dc:type
           rdf:resource="http://purl.org/dc/dcmitype/StillImage" />
        <dc:title />
      </cc:Work>
    </rdf:RDF>
  </metadata>
  <g
     inkscape:label="Layer 1"
     inkscape:groupmode="layer"
     id="layer1">
    <g
       transform="scale(1.3258141,0.75425356)"
       style="font-style:normal;font-variant:normal;font-weight:normal;font-stretch:normal;font-size:1806.62390137px;line-height:100%;font-family:'Outliner No. 45 DEMO';-inkscape-font-specification:'Outliner No. 45 DEMO';letter-spacing:197.13879395px;word-spacing:0px;fill:#000000;fill-opacity:1;stroke:none;stroke-width:1px;stroke-linecap:butt;stroke-linejoin:miter;stroke-opacity:1"
       id="text3336">
      <path
         d="m -604.49252,1362.7755 1.80662,5.4199 -3.61325,-7.2265 1.80663,1.8066 z m 12.64637,32.5192 0,1.8067 0,-1.8067 z m -1.80663,-16.2596 1.80663,3.6133 0,5.4198 0,1.8067 q 0,0 -1.80663,-3.6133 l 1.80663,3.6133 -1.80663,0 1.80663,3.6132 -1.80663,0 1.80663,1.8066 -5.41988,-5.4198 3.61325,0 q 0,-5.4199 -1.80662,-5.4199 l 1.80662,1.8066 -1.80662,0 -1.80663,-1.8066 0,1.8066 -1.80662,-5.4198 q 1.80662,-1.8067 0,-1.8067 -1.80662,0 -1.80662,-3.6132 l 0,1.8066 q 1.80662,0 1.80662,0 0,1.8066 1.80662,1.8066 l 1.80663,0 1.80662,0 z m -1.80662,-7.2265 5.41987,7.2265 -3.61325,0 -3.61325,0 q -1.80662,0 -1.80662,-1.8066 0,0 -1.80662,0 l 0,-1.8066 -1.80663,-5.4199 -1.80662,-7.2265 0,-5.4199 1.80662,5.4199 0,-3.6132 7.2265,7.2265 0,3.6132 0,1.8066 z m 28.90598,-379.39099 -1.80662,1.80663 1.80662,-1.80663 z m -39.74573,263.76709 3.61325,3.6133 -1.80662,-7.2265 -1.80663,1.8066 0,1.8066 z m 1.80663,-3.6132 0,-1.8067 0,1.8067 z m 3.61325,72.2649 1.80662,-1.8066 1.80662,7.2265 -3.61324,0 0,-5.4199 z m 180.66239,-233.0545 -5.41988,1.8067 9.03312,-3.6133 -3.61324,1.8066 z m -50.58547,10.8398 1.80662,0 -1.80662,0 z m 28.90598,-3.6133 -1.80662,3.6133 -7.2265,1.8066 -10.83974,0 1.80662,0 q 1.80662,0 5.41987,-1.8066 l -10.83974,0 -1.80662,0 -1.80663,0 10.83974,-3.6133 -1.80662,1.8066 q 0,0 1.80662,1.8067 7.2265,0 7.2265,-3.6133 -1.80662,0 -1.80662,0 0,1.8066 -1.80663,1.8066 0,0 3.61325,-3.6132 l -1.80662,0 q 1.80662,0 3.61324,0 1.80663,-1.8066 5.41988,-1.8066 -1.80663,0 -1.80663,1.8066 l 1.80663,0 q 0,0 7.22649,-3.6132 l -3.61325,1.8066 q -1.80662,0 -1.80662,1.8066 l -1.80662,1.8066 1.80662,0 z m 9.03312,1.8066 1.80662,0 q -1.80662,0 -3.61324,0 0,1.8067 -1.80663,1.8067 l 3.61325,-1.8067 z m 158.9829,-83.1047 -1.80662,0 1.80662,0 -1.80662,0 1.80662,0 z m -153.56303,83.1047 -1.80662,0 -3.61325,0 -10.83974,5.4199 0,-3.6132 1.80662,-5.4199 q 0,0 1.80662,-1.8066 l 7.2265,-1.8066 7.22649,0 12.64637,-3.6133 -5.41987,3.6133 3.61325,-1.8067 -9.03312,9.0331 -3.61325,0 z m -79.49145,-688.32366 0,1.80662 -5.41987,3.61325 -9.03312,9.03312 9.03312,-16.25961 q 0,-1.80663 0,-1.80663 1.80662,-1.80662 1.80662,-5.41987 3.61325,3.61325 7.2265,3.61325 l -3.61325,5.41987 z m 231.24786,605.21896 1.80662,0 -3.61325,0 -3.61324,3.6133 0,5.4199 7.22649,-9.0332 -1.80662,0 z m 1.80662,0 -1.80662,0 1.80662,0 z m 122.85043,-236.66768 0,-3.61325 0,-9.03312 q 0,3.61325 -1.80663,7.22649 -1.80662,1.80663 -1.80662,7.2265 l 0,7.2265 3.61325,-9.03312 z m -213.18162,301.70618 1.80662,0 -3.61325,3.6133 -5.41987,3.6132 -1.80662,-3.6132 9.03312,-3.6133 z m 133.69017,-267.38033 -1.80663,1.80662 0,3.61325 q 3.61325,-3.61325 3.61325,-7.22649 l -3.61325,-3.61325 1.80663,5.41987 z m -28.90599,61.42521 -3.61324,0 1.80662,3.61325 1.80662,-1.80662 0,-1.80663 z m -63.23183,86.71795 -1.80663,1.80662 3.61325,-3.61324 0,-1.80663 -1.80662,3.61325 z m 77.68483,-128.2703 -1.80663,3.61325 1.80663,1.80662 1.80662,-3.61324 -1.80662,-1.80663 z m -513.08119,182.46897 q -1.80663,0 -1.80663,-1.8066 l 0,-3.6132 q 0,-3.6133 3.61325,-10.8398 3.61325,-9.03309 14.45299,-25.2927 18.06624,-27.09936 30.71261,-46.97222 12.64637,-19.87287 16.25961,-19.87287 28.90599,32.51923 75.87821,59.61859 16.25961,-72.26495 36.13248,-148.14316 21.67948,-77.68483 43.35897,-148.14316 21.67949,-72.26495 41.55235,-137.30341 21.67949,-65.03846 37.9391,-115.62393 -1.80662,1.80662 -9.03312,1.80662 -5.41987,0 -14.45299,-5.41987 -9.03312,-7.2265 -19.87286,-7.2265 -1.80663,1.80663 -1.80663,3.61325 0,1.80662 -1.80662,1.80662 l 3.61325,-7.22649 q -3.61325,0 -7.2265,-3.61325 -21.67949,-14.45299 -37.9391,-23.48611 -16.25962,-10.83974 -16.25962,-19.87286 0,0 1.80663,-3.61325 30.7126,-43.35897 63.23184,-95.75107 32.51923,-52.39209 68.6517,-110.20406 7.2265,-16.25961 19.87287,-37.9391 12.64636,-21.679484 30.7126,-41.552347 19.87287,-19.872863 43.35898,-32.51923 23.48611,-14.452991 50.58547,-14.452991 56.00534,0 92.13781,46.972221 36.13248,45.165597 56.00535,110.204057 19.87286,65.03846 27.09935,137.30342 9.03312,72.26495 9.03312,122.85042 0,113.81731 -18.06624,231.24786 -18.06623,115.62393 -59.61858,209.56837 l -5.41988,7.2265 q -3.61324,3.61325 -3.61324,7.2265 l 0,1.80662 -3.61325,7.2265 q 0,-1.80663 -1.80663,-1.80663 l 0,1.80663 q 0,1.80662 -1.80662,3.61324 0,1.80663 0,5.41987 l -5.41987,10.83975 -3.61325,5.41987 -3.61325,5.41987 q -3.61324,7.2265 -7.22649,14.45299 -3.61325,7.2265 -9.03312,14.45299 l -3.61325,5.41988 q -9.03312,16.25961 -21.67949,30.71257 -12.64636,14.453 -27.09936,27.0994 l -3.61324,3.6132 -10.83975,9.0332 0,-1.8067 -1.80662,1.8067 q -1.80662,1.8066 -1.80662,1.8066 1.80662,0 -1.80663,3.6132 l -3.61325,1.8067 q -5.41987,5.4198 -19.87286,12.6463 l -18.06624,10.8398 q 0,1.8066 -10.83974,5.4198 l 0,1.8067 -1.80663,0 -10.83974,3.6132 -10.83974,3.6133 q -28.90598,10.8397 -56.00534,14.4529 l 5.41987,0 9.03312,-9.0331 -1.80663,1.8067 1.80663,-1.8067 5.41987,-3.6132 0,1.8066 q 3.61325,-1.8066 16.25962,-7.2265 12.64636,-5.4199 21.67948,-9.0331 l 0,1.8066 q 3.61325,-3.6132 9.03312,-5.4199 5.41987,-1.8066 9.03312,-5.4198 25.29274,-9.0332 36.13248,-21.6795 12.64637,-12.6464 28.90598,-25.2928 l -1.80662,3.6133 q 0,-1.8066 5.41987,-3.6133 l -1.80662,0 q 0,-1.8066 14.45299,-19.87282 16.25961,-19.87286 27.09936,-30.7126 3.61324,-7.2265 18.06623,-32.51923 16.25962,-27.09936 25.29274,-50.58547 -9.03312,14.45299 -30.71261,50.58547 -21.67948,36.13248 -59.61859,74.07155 -37.9391,36.1325 -95.75106,65.0385 -56.00534,27.0993 -137.30342,27.0993 -28.90598,0 -52.39209,-5.4198 -3.61325,10.8397 -5.41987,21.6795 -1.80663,12.6463 -5.41988,25.2927 l -1.80662,5.4199 q 0,1.8066 -1.80662,1.8066 0,1.8066 0,3.6132 l 1.80662,1.8067 -1.80662,5.4198 0,5.4199 0,1.8066 0,9.0332 -1.80663,3.6132 -3.61325,25.2927 1.80663,0 -1.80663,0 1.80663,3.6133 -3.61325,52.3921 0,9.0331 -1.80662,-1.8066 0,3.6132 q 0,1.8066 0,0 1.80662,0 1.80662,3.6133 l -1.80662,1.8066 0,16.2596 1.80662,12.6464 0,9.0331 -1.80662,9.0331 1.80662,5.4199 0,7.2265 q 0,10.8397 1.80662,19.8728 1.80663,9.0332 3.61325,16.2597 l -1.80662,-3.6133 0,-3.6132 -7.2265,-7.2265 0,1.8066 -1.80662,-3.6133 0,1.8067 -1.80663,-3.6133 q 0,1.8066 -1.80662,-10.8397 -1.80662,-10.8398 -3.61325,-16.2596 l 1.80663,0 q -1.80663,-3.6133 -1.80663,-7.2265 0,-3.6133 -1.80662,-7.2265 l 0,-5.4199 0,-10.8397 0,-3.6133 q -1.80662,-9.0331 -1.80662,-18.0662 0,-9.0332 0,-18.0663 l 1.80662,1.8067 q 0,-1.8067 0,-1.8067 1.80662,1.8067 1.80662,-1.8066 0,1.8066 -1.80662,1.8066 l 0,-1.8066 q 0,-1.8066 -1.80662,-1.8066 0,0 0,-1.8066 0,-3.6133 0,-5.4199 1.80662,-1.8066 1.80662,-5.4199 0,-1.8066 -1.80662,-3.6132 0,-1.8067 0,-5.4199 l 1.80662,0 q 0,-1.8066 -1.80662,-3.6133 0,0 0,-1.8066 0,-3.6132 0,-5.4199 1.80662,-1.8066 1.80662,-5.4198 l 1.80662,-5.4199 q -1.80662,-3.6132 -1.80662,-5.4199 1.80662,0 0,-3.6132 l 3.61325,-14.453 q 0,-9.0331 0,-18.0662 1.80662,-7.2265 3.61324,-16.2597 -9.03311,43.359 -12.64636,79.4915 -1.80663,36.1325 -1.80663,65.0385 0,34.3258 3.61325,54.1987 3.61325,19.8728 7.2265,19.8728 0,1.8067 -1.80663,7.2265 -1.80662,5.4199 -10.83974,5.4199 -9.03312,0 -16.25962,-12.6464 -7.22649,-10.8397 -12.64636,-28.906 -3.61325,-18.0662 -7.2265,-41.5523 -1.80662,-21.6795 -1.80662,-41.5523 0,-37.9392 5.41987,-83.1047 5.41987,-45.1656 14.45299,-97.5577 -48.77884,-16.2597 -81.29807,-36.1325 -30.71261,-19.8729 -36.13248,-25.2928 z m 149.94978,240.281 q 0,-1.8066 -1.80662,-1.8066 l 1.80662,1.8066 z m -3.61325,-1.8066 q 1.80663,0 1.80663,-3.6132 l -1.80663,3.6132 z m 0,39.7457 -1.80662,-1.8066 0,1.8066 1.80662,0 z m -1.80662,-19.8728 0,1.8066 q 0,1.8066 0,1.8066 1.80662,1.8066 1.80662,3.6133 l -1.80662,-7.2265 z m 3.61325,39.7457 q 0,0 -1.80663,1.8066 l 1.80663,0 0,-1.8066 z m 0,-7.2265 -1.80663,0 0,1.8066 1.80663,-1.8066 z m 1.80662,-19.8729 -1.80662,-3.6132 1.80662,3.6132 z m 251.12072,-218.6015 q 1.80663,-1.8066 3.61325,-1.8066 l -1.80662,0 1.80662,-1.8066 q -3.61325,1.8066 -3.61325,3.6132 z m 12.64637,-7.2265 -1.80662,0 -1.80663,0 q 0,1.8067 3.61325,1.8067 l 0,-1.8067 z m 16.25962,-10.8397 -3.61325,1.8066 3.61325,-1.8066 z m 9.03312,0 3.61324,-3.6132 -3.61324,3.6132 z m 5.41987,-9.0331 q 1.80662,0 5.41987,-3.6133 1.80662,-1.8066 1.80662,-3.6132 l -7.22649,7.2265 z m 32.51923,-27.0994 -1.80663,1.8066 1.80663,-1.8066 z m -1.80663,5.4199 q 0,0 1.80663,-1.8066 l -1.80663,0 0,1.8066 z m 9.03312,-3.6133 -3.61325,0 -3.61324,3.6133 0,5.4199 5.41987,-5.4199 1.80662,-3.6133 z m 32.51923,-48.7788 -1.80662,0 0,1.80663 q 0,-1.80663 1.80662,-1.80663 z m -1.80662,5.41987 q 1.80662,0 1.80662,-1.80662 0,-3.61325 1.80663,-3.61325 -3.61325,0 -3.61325,5.41987 z m 16.25961,-23.48611 0,-1.80662 -1.80662,1.80662 1.80662,0 z m 0,12.64637 1.80663,-1.80662 -1.80663,1.80662 z m 72.26496,-173.43589 3.61325,-9.03312 0,-3.61325 0,-9.03312 q 0,3.61325 -1.80663,7.22649 -1.80662,1.80663 -1.80662,7.2265 l 0,7.2265 z m -166.2094,169.82264 -1.80662,3.61325 -1.80663,1.80662 3.61325,-3.61324 0,-1.80663 z m 39.74573,-57.81196 1.80662,-1.80663 -1.80662,1.80663 z m 21.67948,-25.29274 -1.80662,-1.80662 -1.80662,3.61325 3.61324,0 0,-1.80663 z m 9.03312,-14.45299 0,-1.80662 0,1.80662 z m 52.3921,18.06624 q 0,-3.61325 1.80662,-5.41987 -3.61325,3.61325 -3.61325,5.41987 l 1.80663,0 z m 7.22649,-14.45299 -1.80662,0 1.80662,0 z m -352.29166,63.23184 q 0,16.25961 -5.41987,36.13247 -5.41987,19.87287 -9.03312,36.13245 12.64637,9.0332 37.9391,12.6464 27.09936,1.8066 56.00534,1.8066 32.51923,0 54.19872,-5.4198 21.67949,-7.2265 39.74573,-18.06629 18.06623,-12.64636 32.51923,-27.09936 16.25961,-16.25961 36.13247,-36.13247 l 3.61325,-1.80663 0,-1.80662 0,-1.80663 3.61325,-1.80662 0,-3.61325 3.61325,-3.61325 1.80662,-1.80662 0,-3.61325 7.2265,-10.83974 1.80662,1.80662 -1.80662,-3.61324 16.25961,-25.29274 1.80663,-5.41987 1.80662,1.80662 0,-1.80662 -1.80662,0 1.80662,-1.80662 1.80662,-1.80663 5.41988,-7.22649 5.41987,-10.83975 5.41987,-7.22649 q 5.41987,-10.83975 12.64637,-21.67949 l -1.80663,1.80662 0,3.61325 q 3.61325,-3.61325 3.61325,-7.22649 l 0,-3.61325 q 1.80662,-1.80663 1.80662,-3.61325 21.67949,-59.61859 32.51923,-128.2703 10.83975,-70.45833 10.83975,-142.72328 0,-54.19872 -7.2265,-122.85043 -7.22649,-70.45833 -21.67948,-131.88354 -12.64637,-63.23184 -30.71261,-106.59081 -18.06624,-43.35898 -39.74573,-43.35898 -5.41987,0 -18.06624,19.87286 -10.83974,19.87287 -25.29273,45.1656 -14.45299,25.29274 -28.90598,50.58547 -12.64637,23.48611 -18.06624,34.32586 18.06624,-3.61325 32.51923,-5.41988 14.45299,-3.61324 25.29273,-3.61324 14.45299,0 18.06624,10.83974 -18.06624,81.29807 -46.97222,162.59615 -28.90598,79.49145 -63.23184,160.78953 -32.51923,79.49145 -68.6517,160.78953 -34.32586,79.49145 -66.84509,162.59615 z m -23.48611,63.23183 -1.80662,1.80663 1.80662,-1.80663 z m -28.90598,104.78419 q -1.80663,1.8066 -1.80663,5.4199 1.80663,-1.8067 1.80663,-5.4199 z m -1.80663,104.7842 0,1.8066 0,-1.8066 z m -7.22649,-61.4252 q 0,1.8066 -1.80663,1.8066 0,0 0,1.8066 l 1.80663,0 0,-3.6132 z m -1.80663,56.0053 1.80663,0 q 0,-1.8066 -1.80663,-1.8066 l 0,1.8066 z m 0,56.0054 0,3.6132 3.61325,3.6133 -1.80662,-5.4199 -1.80663,-3.6133 1.80663,1.8067 -1.80663,0 z m -1.80662,-39.7458 q 0,1.8067 1.80662,1.8067 0,0 -1.80662,-1.8067 l 1.80662,-1.8066 -1.80662,1.8066 z"
         style="font-style:normal;font-variant:normal;font-weight:normal;font-stretch:normal;font-family:'Olympic Branding';-inkscape-font-specification:'Olympic Branding';letter-spacing:0px"
         id="path3344" />
      <path
         d="m 276.01083,779.23599 q -3.61325,25.29274 -32.51923,54.19872 -27.09936,28.90598 -68.65171,34.32585 -9.03312,19.87287 -28.90598,72.26496 -18.06624,50.58547 -46.972221,97.55768 l -1.806624,3.6133 q 0,0 -1.806624,3.6132 l -1.806624,1.8066 0,1.8067 0,1.8066 0,1.8066 -3.613248,3.6132 0,3.6133 -1.806623,1.8066 -9.03312,14.453 1.806624,0 q -3.613248,7.2265 -9.03312,14.453 -3.613247,5.4199 -9.033119,10.8397 l -3.613248,3.6133 -1.806624,3.6132 0,1.8067 -9.033119,7.2265 -5.419872,7.2265 -7.226496,7.2265 -5.419871,1.8066 1.806624,0 q -7.226496,3.6132 -14.452992,7.2265 -5.419871,5.4198 -9.0331191,9.0331 l 1.8066241,-1.8066 1.806624,-1.8067 1.806624,-7.2265 -1.806624,1.8067 1.806624,-3.6133 -1.806624,1.8066 0,-1.8066 q 0,0 -1.806624,1.8066 l -1.8066241,1.8067 -3.6132478,1.8066 0,5.4199 0,5.4198 q -1.8066239,1.8067 -3.6132478,1.8067 l -1.80662391,0 q 0,0 3.61324781,-1.8067 l -3.61324781,1.8067 0,-1.8067 0,1.8067 -1.80662389,0 -1.8066239,0 1.8066239,-5.4199 q 1.80662389,0 0,1.8066 0,1.8066 1.80662389,1.8066 3.61324781,0 3.61324781,-3.6132 l -1.8066239,1.8066 q 0,0 -1.80662391,-1.8066 0,0 1.80662391,-1.8066 l -1.80662391,0 3.61324781,-1.8067 -1.8066239,0 q 1.8066239,1.8067 0,0 0,-1.8066 3.6132478,-1.8066 l 0,-1.8066 q 3.6132478,0 -9.0331195,7.2265 -10.8397436,7.2265 -21.6794866,7.2265 l -5.419872,0 q -3.613248,1.8066 -9.033119,1.8066 -37.939102,0 -56.005341,-28.906 -18.066238,-28.906 -25.292738,-63.2318 -9.03312,-34.3259 -9.03312,-61.4252 0,-28.906 0,-27.09938 0,-88.52457 18.06624,-171.62927 18.066242,-83.1047 43.358976,-148.14316 25.292735,-65.03846 50.585469,-106.59081 25.292735,-43.35897 39.745726,-52.39209 l -1.806624,0 q 0,-1.80663 9.03312,-5.41987 9.033119,-3.61325 18.066239,-3.61325 14.452991,0 27.099358,27.09936 3.613248,-3.61325 10.839744,-9.03312 9.033119,-7.2265 21.679482,-7.2265 56.00535,0 77.68483,56.00534 21.67949,56.00534 21.67949,142.72329 0,50.58547 -12.64637,106.59081 10.83975,-3.61325 21.67949,-9.03312 10.83974,-5.41987 16.25961,-16.25961 l 1.80663,0 0,-5.41988 0,1.80663 1.80662,-1.80663 q 0,0 -1.80662,-1.80662 l 1.80662,-1.80662 1.80663,-12.64637 1.80662,-5.41987 3.61325,-3.61325 -1.80663,-1.80662 q 3.61325,-14.453 3.61325,-21.67949 l 0,3.61325 5.41987,3.61324 1.80663,1.80663 q 0,1.80662 0,1.80662 1.80662,0 1.80662,1.80663 l -1.80662,10.83974 1.80662,-7.2265 3.61325,-10.83974 q 0,-1.80662 1.80662,0 1.80663,0 1.80663,-3.61325 l 0,-3.61324 0,-1.80663 0,-3.61325 3.61324,-7.22649 -1.80662,-3.61325 1.80662,-7.2265 q 0,-5.41987 1.80663,-7.22649 0,-1.80662 1.80662,-3.61325 l -1.80662,-3.61325 q 5.41987,-5.41987 10.83974,-5.41987 3.61325,0 3.61325,7.2265 1.80662,5.41987 3.61325,12.64636 0,0 -1.80663,3.61325 0,1.80663 1.80663,1.80663 l 1.80662,1.80662 q 0,1.80662 -1.80662,3.61325 -1.80663,0 -1.80663,3.61325 0,1.80662 1.80663,3.61324 1.80662,0 1.80662,3.61325 l -1.80662,1.80663 1.80662,12.64636 -1.80662,1.80663 q -1.80663,0 -1.80663,1.80662 0,0 1.80663,3.61325 l -1.80663,3.61325 1.80663,9.03312 q -3.61325,0 -5.41987,1.80662 0,1.80662 1.80662,1.80662 l 1.80662,1.80663 -5.41987,16.25961 z M -7.6291212,1149.5939 q 3.6132478,-3.6133 3.6132478,-5.4199 -3.6132478,3.6133 -7.2264956,3.6133 -1.806624,1.8066 -5.419872,3.6132 l -1.806624,0 q -5.419871,0 -9.033119,0 -3.613248,1.8066 -9.03312,1.8066 l 0,1.8067 1.806624,1.8066 5.419872,0 5.419872,0 -1.806624,-1.8066 3.613248,0 q 1.806623,-1.8067 3.613247,-1.8067 1.806624,1.8067 3.613248,0 l 1.806624,1.8067 5.4198718,-5.4199 z m 21.6794872,-12.6464 0,-1.8066 0,1.8066 z m 21.679486,-18.0662 q 0,-1.8066 -3.613247,-1.8066 l 3.613247,1.8066 z m 3.613248,-9.0331 -1.806624,0 1.806624,1.8066 0,-1.8066 z m 5.419872,0 1.806624,-1.8067 -1.806624,1.8067 z m 0,-3.6133 1.806624,-5.4199 q 0,1.8067 -1.806624,1.8067 0,1.8066 0,3.6132 z m -7.226496,3.6133 q 7.226496,-10.8398 9.03312,-12.6464 -7.226496,9.0331 -16.259615,18.0662 -9.03312,10.8398 -10.839744,10.8398 l 0,3.6132 5.419872,-5.4198 1.806624,1.8066 q 0,-3.6133 3.613248,-10.8398 5.419871,-5.4198 7.226495,-5.4198 z m 14.452992,-16.2596 q 0,0 1.806623,-1.8067 l -1.806623,1.8067 0,-3.6133 q 0,1.8066 -3.613248,5.4199 1.806624,-1.8066 1.806624,-3.6133 l 1.806624,1.8067 z m 1.806623,0 q 1.806624,0 1.806624,-1.8067 l -1.806624,1.8067 z m 1.806624,1.8066 q 0,0 1.806624,-1.8066 l -1.806624,0 0,1.8066 z m 7.226496,0 -1.806624,-1.8066 0,1.8066 -3.613248,0 1.806624,0 0,3.6132 1.806624,-3.6132 1.806624,0 z m 5.419872,-23.4861 1.806624,0 -1.806624,0 z m 1.806624,1.8066 0,-1.8066 0,1.8066 z m 3.613247,-10.8398 1.806624,0 -1.806624,0 z m 5.419872,9.0332 1.806624,-1.8067 -1.806624,1.8067 z m 10.839743,-160.78956 -3.613247,-1.80663 -5.419872,3.61325 7.226496,3.61325 1.806623,-5.41987 z m 5.419872,-61.42522 Q 71.86233,837.04796 55.602715,817.17509 39.3431,795.49561 28.503357,773.81612 q -9.03312,-23.48611 -14.452991,-43.35897 -3.613248,-21.67949 -3.613248,-32.51923 -16.2596153,43.35897 -41.55235,126.46367 -23.486111,83.1047 -23.486111,186.08231 0,12.6463 0,28.9059 1.806624,14.453 5.419872,27.0994 3.613248,12.6464 9.03312,21.6795 5.419871,9.0331 14.452991,9.0331 12.646367,0 25.29273439,-12.6464 Q 14.050366,1071.9091 26.696733,1052.0362 39.3431,1030.3567 50.182844,1006.8706 62.829211,981.57787 71.86233,958.09176 l 0,-3.61325 0,1.80662 10.839744,-50.58546 1.806624,-9.03312 0,1.80662 1.806624,-3.61325 -1.806624,0 0,-3.61325 5.419871,-16.25961 1.806624,-12.64637 q 0,0 3.613248,-9.03312 l -1.806624,0 1.806624,0 0,-3.61325 z m 1.806624,34.32586 0,-3.61325 0,3.61325 z m 5.419875,-19.87286 0,-1.80663 0,1.80663 z m 16.25961,-126.46368 q 0,-61.42521 -5.41987,-108.39743 -5.41987,-46.97222 -10.83974,-52.39209 -5.419875,0 -9.033123,23.48611 -1.806624,23.48611 -1.806624,46.97222 0,14.45299 1.806624,56.00534 3.613248,41.55235 23.486113,72.26495 1.80662,-9.03311 1.80662,-18.06623 0,-10.83975 0,-19.87287 z"
         style="font-style:normal;font-variant:normal;font-weight:normal;font-stretch:normal;font-family:'Olympic Branding';-inkscape-font-specification:'Olympic Branding';letter-spacing:0px"
         id="path3346" />
      <path
         d="m 459.8066,898.47317 1.80662,1.80662 q -1.80662,1.80663 -1.80662,3.61325 1.80662,0 0,1.80663 l -3.61325,1.80662 0,-1.80662 1.80662,-1.80663 0,-7.22649 1.80663,1.80662 z m -16.25962,30.71261 1.80663,0 -1.80663,5.41987 -3.61325,-1.80663 1.80663,-3.61324 1.80662,0 z m -269.18696,196.92202 1.80662,0 0,1.8066 -1.80662,-1.8066 z M 642.27561,598.5736 q 3.61325,0 5.41987,3.61325 1.80663,3.61325 1.80663,7.2265 0,3.61324 -3.61325,3.61324 -1.80663,0 -5.41987,1.80663 -1.80663,1.80662 -1.80663,3.61325 1.80663,1.80662 0,1.80662 l -1.80662,0 q -3.61325,0 -3.61325,3.61325 0,1.80662 -3.61325,1.80662 -3.61324,0 -3.61324,3.61325 0,1.80662 -1.80663,1.80662 l -1.80662,0 -9.03312,9.03312 -3.61325,-1.80662 -5.41987,5.41987 -5.41987,5.41987 -3.61325,-1.80662 -1.80662,1.80662 q 0,1.80663 1.80662,3.61325 l -12.64637,7.22649 q -41.55235,32.51924 -93.94444,84.91133 -52.39209,52.39209 -95.75107,110.20406 14.45299,34.32585 34.32586,72.26495 19.87286,36.13248 19.87286,68.65171 0,18.06624 -9.03312,41.55234 -9.03312,23.4861 -27.09936,45.1656 -18.06624,21.6795 -43.35897,36.1325 -23.48611,14.453 -56.00534,14.453 -25.29274,0 -43.35898,-10.8398 -18.06624,-9.0331 -28.90598,-23.4861 -10.83974,-16.2596 -16.25961,-32.5192 -5.41988,-16.2596 -5.41988,-27.0994 0,-5.4198 0,-21.6795 1.80663,-18.06619 9.03312,-45.16555 9.03312,-27.09936 27.09936,-61.42521 18.06624,-36.13248 52.3921,-77.68483 -3.61325,-9.03312 -5.41988,-14.45299 -1.80662,-7.2265 -5.41987,-16.25962 -10.83974,21.67949 -21.67948,43.35898 -10.83975,19.87286 -23.48612,39.74572 l -14.45299,37.9391 q -7.22649,14.453 -14.45299,30.71261 -5.41987,14.45299 -12.64637,30.71261 l -3.61324,1.80662 q 0,1.80662 -1.80663,3.61325 l -1.80662,3.61325 0,3.61324 0,1.80663 -3.61325,5.41989 -1.80662,3.6132 -5.41987,14.453 -12.64637,32.5192 -3.61325,3.6133 0,3.6132 0,3.6133 -7.2265,9.0331 -1.80662,9.0331 q 0,0 -3.61325,3.6133 l 0,1.8066 -5.41987,7.2265 q -3.61325,7.2265 -5.41987,14.453 -3.61325,7.2265 -5.41987,12.6464 l 0,-3.6133 1.80662,-1.8066 -3.61325,-7.2265 0,1.8066 -1.80662,-1.8066 1.80662,-1.8066 q 0,-1.8067 0,-3.6133 -1.80662,0 -1.80662,-1.8066 l 7.2265,-12.6464 0,-1.8066 q 0,-5.4199 5.41987,-19.8729 5.41987,-16.2596 9.03312,-21.6794 l 0,1.8066 q 0,-1.8066 1.80662,0 0,0 0,-1.8066 0,0 -1.80662,0 l 1.80662,-3.6133 q 0,-3.6132 3.61325,-10.8397 l -1.80663,1.8066 -7.22649,14.453 -7.2265,9.0331 0,7.2265 -3.61324,5.4199 -5.41988,10.8397 -3.61324,9.0331 q -1.80663,3.6133 -1.80663,5.4199 -1.80662,1.8066 -1.80662,5.4199 -1.80663,3.6132 -1.80663,5.4198 l 1.80663,-1.8066 0,3.6133 q -3.61325,7.2265 -7.2265,7.2265 -3.61324,0 -3.61324,-3.6133 0,-1.8066 1.80662,-9.0331 0,-5.4199 0,-10.8397 0,-1.8067 0,-1.8067 -1.80662,-1.8066 -1.80662,-3.6132 l 1.80662,-1.8066 1.80662,-3.6133 3.61325,-10.8397 1.80662,-10.8398 3.61325,-14.453 3.61325,-1.8066 0,-5.4199 3.61325,-10.8397 5.41987,-3.6133 -1.80662,-3.6132 7.22649,-18.0662 q 21.67949,-54.19876 54.19872,-128.27034 32.51923,-74.07158 63.23184,-151.75641 -3.61325,-19.87286 -7.2265,-37.9391 -3.61325,-18.06624 -3.61325,-37.9391 l 1.80663,-5.41987 q 0,-5.41988 -1.80663,-5.41988 l 1.80663,0 0,-3.61324 q -1.80663,-1.80663 -1.80663,-3.61325 1.80663,-1.80663 0,-1.80663 l 0,-9.03311 0,-5.41988 1.80663,-21.67948 0,-3.61325 q 0,-9.03312 1.80662,-18.06624 3.61325,-10.83974 7.2265,-19.87286 l 0,-1.80663 1.80662,-7.22649 0,1.80662 1.80662,-3.61325 -1.80662,0 0,-3.61324 3.61325,0 10.83974,-21.67949 q 0,0 3.61325,-7.2265 l -1.80663,0 5.41988,-5.41987 3.61324,-5.41987 -1.80662,0 q 5.41987,-7.2265 12.64637,-14.45299 7.22649,-7.2265 10.83974,-12.64637 l 0,1.80663 5.41987,-1.80663 0,-5.41987 3.61325,-3.61325 0,1.80663 1.80662,-1.80663 0,1.80663 1.80663,-3.61325 0,1.80662 0,-1.80662 3.61325,-3.61325 1.80662,-1.80662 q -1.80662,-1.80663 -1.80662,-7.2265 0,-9.03312 19.87286,-14.45299 l 1.80662,0 q 30.71261,0 39.74573,19.87286 10.83974,19.87287 10.83974,39.74573 0,28.90598 -18.06624,90.33119 -16.25961,61.42522 -56.00534,139.11004 5.41987,14.45299 10.83975,28.90599 5.41987,12.64636 10.83974,27.09935 43.35897,-43.35897 93.94444,-81.29807 52.39209,-37.9391 97.55769,-59.61859 l 7.2265,-3.61325 12.64636,-5.41987 3.61325,1.80662 9.03312,-3.61324 5.41987,-5.41987 7.2265,0 5.41987,-5.41988 3.61325,1.80663 7.22649,-3.61325 9.03312,-3.61325 1.80663,-3.61325 7.22649,-1.80662 q 3.61325,0 3.61325,0 1.80663,-1.80662 3.61325,-1.80662 l 3.61325,0 1.80662,-1.80663 z m -375.77777,-1.80662 0,-1.80663 0,1.80663 z m -115.62393,489.59512 0,-1.8067 0,1.8067 z m 1.80662,-5.4199 1.80663,0 -1.80663,0 z m 3.61325,-7.2265 0,-1.8066 0,1.8066 z m 3.61325,-9.0331 q 1.80662,-1.8067 1.80662,-5.4199 l -1.80662,5.4199 z m 1.80662,5.4198 0,-1.8066 0,1.8066 z m 7.2265,-37.9391 0,1.8067 0,-1.8067 z m -1.80663,16.2597 q 1.80663,0 1.80663,-1.8067 l -1.80663,1.8067 z m 3.61325,-19.8729 q 0,-1.8066 1.80663,-3.6133 l -1.80663,0 0,3.6133 z m 3.61325,19.8729 -3.61325,1.8066 1.80663,3.6132 1.80662,-3.6132 0,-1.8066 z m 0,-25.2928 1.80662,-1.8066 -1.80662,1.8066 z m 3.61325,0 1.80662,0 -1.80662,0 z m 1.80662,1.8066 0,-1.8066 0,1.8066 z m 5.41987,-10.8397 q 0,-1.8066 -1.80662,-1.8066 l 1.80662,1.8066 z m 5.41988,7.2265 0,-1.8066 0,1.8066 z m 32.51923,-84.91133 q -1.80663,1.80663 -1.80663,3.61325 0,0 -1.80662,1.80662 l 0,1.80663 3.61325,-5.41987 0,-1.80663 z m 56.00534,-384.81089 -1.80663,0 -1.80662,5.41987 1.80662,0 1.80663,-5.41987 z m 41.55235,-79.49145 1.80662,-1.80662 -1.80662,1.80662 z m -1.80663,3.61325 1.80663,-1.80663 -1.80663,0 0,1.80663 z m 0,74.07158 q -5.41987,21.67948 -5.41987,43.35897 0,9.03312 0,18.06624 0,7.2265 1.80662,16.25961 18.06624,-48.77884 25.29274,-86.71794 7.2265,-39.74573 10.83974,-57.81197 l -7.22649,0 5.41987,0 1.80662,-1.80662 q 0,-7.2265 -1.80662,-7.2265 0,-1.80662 0,-3.61324 -3.61325,7.22649 -5.41987,7.22649 -1.80663,0 -1.80663,1.80662 l -1.80662,9.03312 -3.61325,1.80663 -3.61325,14.45299 q 0,1.80662 -1.80662,1.80662 l -1.80662,0 -3.61325,10.83975 -1.80663,9.03312 -1.80662,0 q -1.80662,0 -1.80662,1.80662 0,0 1.80662,3.61325 l -3.61325,18.06624 z m -10.83974,495.01494 q -1.80662,0 0,1.8066 3.61325,0 9.03312,0 10.83974,0 27.09936,-9.0331 16.25961,-9.0331 18.06624,-39.74572 0,-9.03312 -5.41988,-23.48611 -5.41987,-16.25961 -14.45299,-39.74572 -19.87286,36.13248 -28.90598,63.23183 -7.22649,25.29272 -7.22649,36.13252 0,7.2265 1.80662,10.8397 z m -41.55235,-448.04272 0,-1.80663 0,1.80663 z m -115.62393,487.78842 0,1.8067 0,-1.8067 z m 1.80662,-3.6132 1.80663,0 -1.80663,0 z m 3.61325,-7.2265 0,-1.8066 0,1.8066 z m 3.61325,-9.0331 q 1.80662,-1.8067 1.80662,-5.4199 l -1.80662,5.4199 z m 1.80662,5.4198 0,-1.8066 0,1.8066 z m 7.2265,-37.9391 0,1.8067 0,-1.8067 z m 0,14.453 -1.80663,1.8067 q 1.80663,0 1.80663,-1.8067 z m 1.80662,-21.6795 0,3.6133 q 1.80663,-3.6133 1.80663,-3.6133 l -1.80663,0 z m 3.61325,23.4862 -3.61325,1.8066 1.80663,3.6132 1.80662,-3.6132 0,-1.8066 z m 0,-25.2928 1.80662,-1.8066 -1.80662,1.8066 z m 5.41987,0 -1.80662,0 1.80662,0 z m 0,0 0,1.8066 0,-1.8066 z m 3.61325,-10.8397 1.80662,1.8066 q 0,-1.8066 -1.80662,-1.8066 z m 7.2265,9.0331 0,-1.8066 0,1.8066 z m 28.90598,-77.68483 3.61325,-5.41987 0,-1.80663 q -1.80663,1.80663 -1.80663,3.61325 0,0 -1.80662,1.80662 l 0,1.80663 z m 57.81196,-388.42414 -1.80662,1.80662 1.80662,0 1.80663,-5.41987 -1.80663,0 0,3.61325 z m 43.35898,-83.1047 1.80662,-1.80662 -1.80662,1.80662 z m -1.80663,1.80662 0,1.80663 1.80663,-1.80663 -1.80663,0 z"
         style="font-style:normal;font-variant:normal;font-weight:normal;font-stretch:normal;font-family:'Olympic Branding';-inkscape-font-specification:'Olympic Branding';letter-spacing:0px"
         id="path3348" />
      <path
         d="m 738.56301,898.47317 1.80662,1.80662 q -1.80662,1.80663 -1.80662,3.61325 1.80662,0 0,1.80663 l -3.61325,1.80662 0,-1.80662 1.80662,-1.80663 0,-7.22649 1.80663,1.80662 z m -16.25962,30.71261 1.80662,0 -1.80662,5.41987 -3.61325,-1.80663 1.80663,-3.61324 1.80662,0 z m -269.18696,196.92202 1.80662,0 0,1.8066 -1.80662,-1.8066 z M 921.03202,598.5736 q 3.61325,0 5.41987,3.61325 1.80663,3.61325 1.80663,7.2265 0,3.61324 -3.61325,3.61324 -1.80663,0 -5.41987,1.80663 -1.80663,1.80662 -1.80663,3.61325 1.80663,1.80662 0,1.80662 l -1.80662,0 q -3.61325,0 -3.61325,3.61325 0,1.80662 -3.61325,1.80662 -3.61325,0 -3.61325,3.61325 0,1.80662 -1.80662,1.80662 l -1.80662,0 -9.03312,9.03312 -3.61325,-1.80662 -5.41987,5.41987 -5.41987,5.41987 -3.61325,-1.80662 -1.80663,1.80662 q 0,1.80663 1.80663,3.61325 l -12.64637,7.22649 q -41.55235,32.51924 -93.94444,84.91133 -52.3921,52.39209 -95.75107,110.20406 14.45299,34.32585 34.32586,72.26495 19.87286,36.13248 19.87286,68.65171 0,18.06624 -9.03312,41.55234 -9.03312,23.4861 -27.09936,45.1656 -18.06624,21.6795 -43.35897,36.1325 -23.48611,14.453 -56.00534,14.453 -25.29274,0 -43.35898,-10.8398 -18.06624,-9.0331 -28.90598,-23.4861 -10.83974,-16.2596 -16.25962,-32.5192 -5.41987,-16.2596 -5.41987,-27.0994 0,-5.4198 0,-21.6795 1.80663,-18.06619 9.03312,-45.16555 9.03312,-27.09936 27.09936,-61.42521 18.06624,-36.13248 52.39209,-77.68483 -3.61324,-9.03312 -5.41987,-14.45299 -1.80662,-7.2265 -5.41987,-16.25962 -10.83974,21.67949 -21.67949,43.35898 -10.83974,19.87286 -23.48611,39.74572 l -14.45299,37.9391 q -7.22649,14.453 -14.45299,30.71261 -5.41987,14.45299 -12.64637,30.71261 l -3.61324,1.80662 q 0,1.80662 -1.80663,3.61325 l -1.80662,3.61325 0,3.61324 0,1.80663 -3.61325,5.41989 -1.80662,3.6132 -5.41988,14.453 -12.64636,32.5192 -3.61325,3.6133 0,3.6132 0,3.6133 -7.2265,9.0331 -1.80662,9.0331 q 0,0 -3.61325,3.6133 l 0,1.8066 -5.41987,7.2265 q -3.61325,7.2265 -5.41987,14.453 -3.61325,7.2265 -5.41987,12.6464 l 0,-3.6133 1.80662,-1.8066 -3.61325,-7.2265 0,1.8066 -1.80662,-1.8066 1.80662,-1.8066 q 0,-1.8067 0,-3.6133 -1.80662,0 -1.80662,-1.8066 l 7.22649,-12.6464 0,-1.8066 q 0,-5.4199 5.41988,-19.8729 5.41987,-16.2596 9.03312,-21.6794 l 0,1.8066 q 0,-1.8066 1.80662,0 0,0 0,-1.8066 0,0 -1.80662,0 l 1.80662,-3.6133 q 0,-3.6132 3.61325,-10.8397 l -1.80663,1.8066 -7.22649,14.453 -7.2265,9.0331 0,7.2265 -3.61325,5.4199 -5.41987,10.8397 -3.61324,9.0331 q -1.80663,3.6133 -1.80663,5.4199 -1.80662,1.8066 -1.80662,5.4199 -1.80663,3.6132 -1.80663,5.4198 l 1.80663,-1.8066 0,3.6133 q -3.61325,7.2265 -7.2265,7.2265 -3.61325,0 -3.61325,-3.6133 0,-1.8066 1.80663,-9.0331 0,-5.4199 0,-10.8397 0,-1.8067 0,-1.8067 -1.80663,-1.8066 -1.80663,-3.6132 l 1.80663,-1.8066 1.80662,-3.6133 3.61325,-10.8397 1.80662,-10.8398 3.61325,-14.453 3.61325,-1.8066 0,-5.4199 3.61325,-10.8397 5.41987,-3.6133 -1.80663,-3.6132 7.2265,-18.0662 q 21.67949,-54.19876 54.19872,-128.27034 32.51923,-74.07158 63.23183,-151.75641 -3.61324,-19.87286 -7.22649,-37.9391 -3.61325,-18.06624 -3.61325,-37.9391 l 1.80662,-5.41987 q 0,-5.41988 -1.80662,-5.41988 l 1.80662,0 0,-3.61324 q -1.80662,-1.80663 -1.80662,-3.61325 1.80662,-1.80663 0,-1.80663 l 0,-9.03311 0,-5.41988 1.80662,-21.67948 0,-3.61325 q 0,-9.03312 1.80663,-18.06624 3.61325,-10.83974 7.22649,-19.87286 l 0,-1.80663 1.80663,-7.22649 0,1.80662 1.80662,-3.61325 -1.80662,0 0,-3.61324 3.61325,0 10.83974,-21.67949 q 0,0 3.61325,-7.2265 l -1.80663,0 5.41987,-5.41987 3.61325,-5.41987 -1.80662,0 q 5.41987,-7.2265 12.64637,-14.45299 7.22649,-7.2265 10.83974,-12.64637 l 0,1.80663 5.41987,-1.80663 0,-5.41987 3.61325,-3.61325 0,1.80663 1.80662,-1.80663 0,1.80663 1.80663,-3.61325 0,1.80662 0,-1.80662 3.61324,-3.61325 1.80663,-1.80662 q -1.80663,-1.80663 -1.80663,-7.2265 0,-9.03312 19.87287,-14.45299 l 1.80662,0 q 30.71261,0 39.74573,19.87286 10.83974,19.87287 10.83974,39.74573 0,28.90598 -18.06624,90.33119 -16.25961,61.42522 -56.00534,139.11004 5.41987,14.45299 10.83974,28.90599 5.41988,12.64636 10.83975,27.09935 43.35897,-43.35897 93.94444,-81.29807 52.39209,-37.9391 97.55769,-59.61859 l 7.2265,-3.61325 12.64636,-5.41987 3.61325,1.80662 9.03312,-3.61324 5.41987,-5.41987 7.2265,0 5.41987,-5.41988 3.61325,1.80663 7.22649,-3.61325 9.03312,-3.61325 1.80663,-3.61325 7.22649,-1.80662 q 3.61325,0 3.61325,0 1.80662,-1.80662 3.61325,-1.80662 l 3.61325,0 1.80662,-1.80663 z m -375.77777,-1.80662 0,-1.80663 0,1.80663 z m -115.62393,489.59512 0,-1.8067 0,1.8067 z m 1.80662,-5.4199 1.80663,0 -1.80663,0 z m 3.61325,-7.2265 0,-1.8066 0,1.8066 z m 3.61325,-9.0331 q 1.80662,-1.8067 1.80662,-5.4199 l -1.80662,5.4199 z m 1.80662,5.4198 0,-1.8066 0,1.8066 z m 7.2265,-37.9391 0,1.8067 0,-1.8067 z m -1.80663,16.2597 q 1.80663,0 1.80663,-1.8067 l -1.80663,1.8067 z m 3.61325,-19.8729 q 0,-1.8066 1.80663,-3.6133 l -1.80663,0 0,3.6133 z m 3.61325,19.8729 -3.61325,1.8066 1.80663,3.6132 1.80662,-3.6132 0,-1.8066 z m 0,-25.2928 1.80662,-1.8066 -1.80662,1.8066 z m 3.61325,0 1.80662,0 -1.80662,0 z m 1.80662,1.8066 0,-1.8066 0,1.8066 z m 5.41987,-10.8397 q 0,-1.8066 -1.80662,-1.8066 l 1.80662,1.8066 z m 5.41987,7.2265 0,-1.8066 0,1.8066 z m 32.51923,-84.91133 q -1.80662,1.80663 -1.80662,3.61325 0,0 -1.80662,1.80662 l 0,1.80663 3.61324,-5.41987 0,-1.80663 z m 56.00535,-384.81089 -1.80663,0 -1.80662,5.41987 1.80662,0 1.80663,-5.41987 z m 41.55235,-79.49145 1.80662,-1.80662 -1.80662,1.80662 z m -1.80663,3.61325 1.80663,-1.80663 -1.80663,0 0,1.80663 z m 0,74.07158 q -5.41987,21.67948 -5.41987,43.35897 0,9.03312 0,18.06624 0,7.2265 1.80662,16.25961 18.06624,-48.77884 25.29274,-86.71794 7.22649,-39.74573 10.83974,-57.81197 l -7.22649,0 5.41987,0 1.80662,-1.80662 q 0,-7.2265 -1.80662,-7.2265 0,-1.80662 0,-3.61324 -3.61325,7.22649 -5.41987,7.22649 -1.80663,0 -1.80663,1.80662 l -1.80662,9.03312 -3.61325,1.80663 -3.61325,14.45299 q 0,1.80662 -1.80662,1.80662 l -1.80663,0 -3.61324,10.83975 -1.80663,9.03312 -1.80662,0 q -1.80662,0 -1.80662,1.80662 0,0 1.80662,3.61325 l -3.61325,18.06624 z M 586.8066,1044.8097 q -1.80663,0 0,1.8066 3.61325,0 9.03312,0 10.83974,0 27.09936,-9.0331 16.25961,-9.0331 18.06623,-39.74572 0,-9.03312 -5.41987,-23.48611 -5.41987,-16.25961 -14.45299,-39.74572 -19.87286,36.13248 -28.90598,63.23183 -7.2265,25.29272 -7.2265,36.13252 0,7.2265 1.80663,10.8397 z m -41.55235,-448.04272 0,-1.80663 0,1.80663 z m -115.62393,487.78842 0,1.8067 0,-1.8067 z m 1.80662,-3.6132 1.80663,0 -1.80663,0 z m 3.61325,-7.2265 0,-1.8066 0,1.8066 z m 3.61325,-9.0331 q 1.80662,-1.8067 1.80662,-5.4199 l -1.80662,5.4199 z m 1.80662,5.4198 0,-1.8066 0,1.8066 z m 7.2265,-37.9391 0,1.8067 0,-1.8067 z m 0,14.453 -1.80663,1.8067 q 1.80663,0 1.80663,-1.8067 z m 1.80662,-21.6795 0,3.6133 q 1.80663,-3.6133 1.80663,-3.6133 l -1.80663,0 z m 3.61325,23.4862 -3.61325,1.8066 1.80663,3.6132 1.80662,-3.6132 0,-1.8066 z m 0,-25.2928 1.80662,-1.8066 -1.80662,1.8066 z m 5.41987,0 -1.80662,0 1.80662,0 z m 0,0 0,1.8066 0,-1.8066 z m 3.61325,-10.8397 1.80662,1.8066 q 0,-1.8066 -1.80662,-1.8066 z m 7.22649,9.0331 0,-1.8066 0,1.8066 z m 28.90599,-77.68483 3.61324,-5.41987 0,-1.80663 q -1.80662,1.80663 -1.80662,3.61325 0,0 -1.80662,1.80662 l 0,1.80663 z m 57.81196,-388.42414 -1.80662,1.80662 1.80662,0 1.80663,-5.41987 -1.80663,0 0,3.61325 z m 43.35898,-83.1047 1.80662,-1.80662 -1.80662,1.80662 z m -1.80663,1.80662 0,1.80663 1.80663,-1.80663 -1.80663,0 z"
         style="font-style:normal;font-variant:normal;font-weight:normal;font-stretch:normal;font-family:'Olympic Branding';-inkscape-font-specification:'Olympic Branding';letter-spacing:0px"
         id="path3350" />
      <path
         d="m 1066.0982,930.9924 q 0,1.80662 0,3.61325 1.8066,1.80662 1.8066,3.61325 0,-1.80663 -5.4198,3.61324 0,1.80663 0,3.61325 1.8066,1.80663 1.8066,3.61325 -1.8066,3.61325 -3.6133,5.41987 -1.8066,0 -3.6132,1.80662 l 0,9.03312 0,3.61325 -3.6133,0 -5.4198,19.87286 -5.4199,3.61325 0,5.41987 -5.4199,7.22652 -3.6132,10.8397 q -1.8067,1.8066 -3.6133,1.8066 -1.8066,-1.8066 -1.8066,0 l 0,3.6133 0,1.8066 -3.6133,5.4199 q -1.8066,5.4199 -12.6463,21.6795 -10.8398,16.2596 -28.906,36.1325 -16.25962,19.8728 -37.9391,36.1324 -21.67949,18.0663 -43.35898,23.4861 l 0,-1.8066 q -1.80662,1.8066 -3.61324,1.8066 -1.80663,0 -3.61325,1.8067 l 1.80662,0 q -7.22649,3.6132 -9.03312,3.6132 l -1.80662,0 q -3.61325,0 -5.41987,0 0,1.8066 -1.80663,1.8066 -7.22649,0 -10.83974,-1.8066 -3.61325,0 -7.2265,0 l -5.41987,0 1.80663,-1.8066 q -3.61325,0 -5.41988,-1.8066 -1.80662,0 -3.61324,0 l -1.80663,-1.8067 -1.80662,0 1.80662,3.6133 q -9.03312,0 -16.25961,-5.4199 l 0,1.8066 -1.80663,0 q -7.22649,-5.4198 -9.03312,-9.0331 -1.80662,-3.6132 -5.41987,-7.2265 l 0,1.8067 q 3.61325,1.8066 -1.80662,-3.6133 -5.41987,-3.6132 -10.83974,-12.6464 -27.09936,-43.3589 -36.13248,-83.1047 -10.83975,-41.55231 -10.83975,-86.71791 0,-115.62393 28.90599,-200.53525 28.90598,-86.71795 63.23183,-142.72329 36.13248,-56.00534 66.84509,-83.1047 32.51923,-27.09936 37.9391,-27.09936 9.03312,0 12.64637,3.61325 5.41987,0 19.87286,7.2265 16.25961,5.41987 32.5192,25.29273 16.2596,18.06624 28.906,52.39209 12.6464,32.51923 12.6464,86.71795 0,30.71261 -14.453,65.03846 -14.453,34.32586 -37.9391,65.03846 -23.48612,30.71261 -54.19873,54.19872 -28.90598,23.48611 -57.81197,30.7126 l 1.80663,0 q -14.45299,7.2265 -21.67949,9.03312 l -1.80662,1.80663 -3.61325,0 0,1.80662 -1.80662,-1.80662 -12.64637,5.41987 -3.61325,1.80662 0,-1.80662 -3.61325,1.80662 -3.61325,-1.80662 1.80663,1.80662 q -5.41987,0 -9.03312,10.83975 -3.61325,10.83974 -5.41987,25.29273 -1.80663,14.45299 -1.80663,30.71261 0,14.45299 0,21.67948 0,10.83975 1.80663,28.90594 3.61325,16.2597 9.03312,34.3259 5.41987,18.0662 12.64636,30.7126 9.03312,12.6464 19.87287,12.6464 27.09936,0 54.19871,-19.8729 28.90599,-19.8729 48.77885,-39.7457 l 14.45299,-16.2596 9.03312,-9.0331 3.61321,-7.2265 3.6133,-3.61329 q 0,0 3.6132,-7.2265 l 5.4199,-7.22649 1.8066,-5.41987 q 3.6133,-9.03312 7.2265,-18.06624 5.4199,-9.03312 9.0331,-16.25962 l -1.8066,3.61325 0,3.61325 1.8066,7.22649 1.8067,-1.80662 5.4198,-9.03312 0,-3.61325 -5.4198,-3.61325 1.8066,-3.61324 q 1.8066,-5.41988 3.6132,-5.41988 l 0,3.61325 0,-1.80662 1.8067,-3.61325 0,1.80662 q 0,0 1.8066,-3.61324 l 0,7.22649 q 0,0 -1.8066,-1.80662 -1.8067,0 -1.8067,3.61325 l 0,1.80662 0,-1.80662 q 1.8067,0 1.8067,3.61324 l 1.8066,-1.80662 -1.8066,5.41987 -1.8067,0 0,3.61325 3.6133,-9.03312 5.4199,-3.61325 1.8066,-7.22649 q 3.6132,-7.2265 7.2265,-10.83975 l 3.6132,-3.61325 -1.8066,0 1.8066,-3.61324 q 0,0 3.6133,-1.80663 10.8397,0 10.8397,7.2265 0,1.80662 -3.6132,7.22649 -1.8067,3.61325 -5.4199,7.2265 z M 867.36957,775.62274 q -5.41987,19.87287 -12.64637,41.55235 -5.41987,21.67949 -10.83974,46.97223 l 1.80662,1.80662 0,-3.61325 10.83975,-7.22649 q 46.97222,-28.90599 79.49145,-77.68483 32.51923,-50.58547 32.51923,-119.23718 0,-39.74572 -14.45299,-63.23184 -16.25962,19.87287 -39.74573,63.23184 -21.67949,41.55235 -46.97222,117.43055 z"
         style="font-style:normal;font-variant:normal;font-weight:normal;font-stretch:normal;font-family:'Olympic Branding';-inkscape-font-specification:'Olympic Branding';letter-spacing:0px"
         id="path3352" />
      <path
         d="m 1042.7251,1106.2349 q -7.2265,-25.2927 -9.0332,-46.9722 -1.8066,-23.4861 -1.8066,-41.5524 0,-36.13243 12.6464,-139.10999 10.8397,-104.78419 65.0384,-287.2532 21.6795,-79.49146 43.359,-149.94979 21.6795,-70.45833 37.9391,-124.65705 18.0663,-54.19871 28.906,-88.52457 12.6464,-34.32585 16.2596,-43.35897 1.8066,-3.61325 5.4199,-9.03312 3.6132,-3.61325 7.2265,-5.41987 5.4199,-3.61325 14.453,-3.61325 28.906,0 39.7457,12.64637 12.6464,12.64636 12.6464,21.67948 0,10.83975 -10.8398,45.1656 0,3.61325 -12.6463,43.35898 -10.8398,39.74572 -27.0994,90.33119 -14.453,50.58547 -30.7126,99.36431 -16.2596,48.77885 -23.4861,70.45834 -36.1325,140.91666 -63.2319,254.73397 -25.2927,113.8173 -28.9059,175.24252 0,-1.80663 -1.8067,9.03311 0,10.83975 0,28.90594 0,18.0663 1.8067,41.5524 1.8066,21.6795 7.2265,41.5523 3.6132,9.0332 -5.4199,9.0332 14.453,0 34.3258,-19.8729 19.8729,-21.6795 36.1325,-36.1325 l 3.6133,-3.6132 5.4198,-5.4199 3.6133,0 3.6132,-5.4199 5.4199,-5.4198 1.8066,-3.6133 3.6133,1.8066 1.8066,-3.6132 1.8066,-3.6133 5.4199,0 0,-3.6132 3.6132,-3.6133 q 1.8067,0 1.8067,0 1.8066,-1.8066 3.6132,-1.8066 l 1.8066,0 -1.8066,-1.8066 1.8066,0 q 3.6133,0 7.2265,3.6132 5.4199,1.8067 5.4199,5.4199 0,1.8066 -1.8066,1.8066 -1.8066,0 -3.6133,1.8067 l 1.8067,3.6132 -3.6133,0 1.8066,3.6133 q 0,1.8066 -1.8066,1.8066 -1.8066,-1.8066 -1.8066,0 l 0,3.6132 0,1.8067 -1.8066,0 1.8066,1.8066 -5.4199,5.4199 -1.8066,3.6132 -1.8066,5.4199 -1.8067,0 1.8067,1.8066 -5.4199,9.0331 q -3.6132,5.4199 -10.8397,23.4861 -7.2265,18.0663 -19.8729,36.1325 -10.8398,19.8729 -30.7126,34.3259 -18.0663,16.2596 -45.1656,16.2596 -21.6795,0 -36.1325,-9.0331 -12.6464,-9.0332 -21.6795,-21.6795 -9.0331,-10.8398 -12.6463,-23.4861 -5.4199,-10.8398 -7.2265,-18.0663 z"
         style="font-style:normal;font-variant:normal;font-weight:normal;font-stretch:normal;font-family:'Olympic Branding';-inkscape-font-specification:'Olympic Branding';letter-spacing:0px"
         id="path3354" />
    </g>
  </g>
</svg>
